<?xml version="1.0" encoding="utf-8"?>
<!-- Generator: Adobe Illustrator 19.0.0, SVG Export Plug-In . SVG Version: 6.00 Build 0)  -->
<svg version="1.1" id="Vector" xmlns="http://www.w3.org/2000/svg" xmlns:xlink="http://www.w3.org/1999/xlink" x="0px" y="0px"
	 viewBox="203 -148 690 577.5" style="enable-background:new 203 -148 690 577.5;" xml:space="preserve">
<style type="text/css">
	.st0{fill:none;}
	.st1{font-family:'MyriadPro-Regular';}
	.st2{font-size:20.2669px;}
	.st3{fill:none;stroke:#000000;}
	.st4{fill:none;stroke:#3C4898;stroke-miterlimit:10;}
	.st5{fill:#3C4898;}
	.st6{fill:none;stroke:#6DB42D;stroke-miterlimit:10;}
	.st7{fill:#6DB42D;}
	.st8{fill:#E20A13;}
	.st9{font-size:38.3065px;}
	.st10{fill:none;stroke:#E20A13;stroke-miterlimit:10;}
	.st11{font-size:31.1955px;}
	.st12{font-size:39px;}
</style>
<g id="final">
	<rect x="544.5" y="54.2" class="st0" width="21.5" height="18.6"/>
	<text transform="matrix(1 0 0 1 544.4639 68.5876)" class="st1 st2">N</text>
	<rect x="545.7" y="204.9" class="st0" width="16.9" height="14.8"/>
	<text transform="matrix(1 0 0 1 545.7314 219.3235)" class="st1 st2">S</text>
	<g id="vertical_line_1_">
		<line id="top_line" class="st3" x1="551.1" y1="-132.8" x2="551.1" y2="48.7"/>
		<path class="st3" d="M637.5,142.4c0,0-89.2,18.2-172.8-1.7"/>
		<polygon points="557.3,287.1 545.9,286.3 550.9,296.6 		"/>
		<polygon points="557,-21.3 545.6,-22 550.6,-11.8 		"/>
		<line id="bottom_line_1_" class="st3" x1="551.1" y1="223.5" x2="551.1" y2="405.1"/>
	</g>
	<g id="rightTop">
		<path class="st3" d="M558.4,49.6c0,0,24.1-102.6,49.8-138.9"/>
		<path class="st3" d="M566.4,50.4c0,0,54.5-103.9,104.3-139.3"/>
		<path class="st3" d="M575.6,53.2c0,0,91.8-116,149.2-137.1"/>
		<path class="st3" d="M585.8,57.2c0,0,104.3-125.8,283.3-136"/>
		<path class="st3" d="M594.3,61c0,0,134.7-115.3,273.2-17.3"/>
		<polygon points="572.3,-22.8 583.1,-19 574.4,-11.5 		"/>
		<polygon points="599.3,-15.9 608.9,-9.7 598.7,-4.4 		"/>
		<polygon points="618.8,-7.3 628.3,-0.9 618.1,4.2 		"/>
		<polygon points="634.9,2.2 643.2,10.1 632.2,13.3 		"/>
		<polygon points="657,17.3 662.6,27.3 651.1,27.2 		"/>
	</g>
	<g id="leftTop">
		<path class="st3" d="M544.9,48.7c0,0-24.1-101.8-49.8-138.1"/>
		<path class="st3" d="M536.9,50.4c0,0-54.5-103.9-104.3-139.3"/>
		<path class="st3" d="M527.7,53.2c0,0-91.8-116-149.2-137.1"/>
		<path class="st3" d="M516.7,56.9c0,0-103.6-125.5-282.6-135.7"/>
		<path class="st3" d="M509,61c0,0-134.7-115.3-273.2-17.3"/>
		<polygon points="531,-22.8 520.2,-19 528.9,-11.5 		"/>
		<polygon points="504,-15.9 494.4,-9.7 504.6,-4.4 		"/>
		<polygon points="484.5,-7.3 474.9,-0.9 485.2,4.2 		"/>
		<polygon points="468.4,2.2 460.1,10.1 471.1,13.3 		"/>
		<polygon points="446.7,17.1 440.6,26.8 452,27.3 		"/>
	</g>
	<g id="leftBottom">
		<path class="st3" d="M542.1,222.7c0,0-6.8,101.9-71.5,170"/>
		<path class="st3" d="M534.8,221c0,0-41.1,116.5-145.2,162.1"/>
		<path class="st3" d="M525.7,219.9c0,0-65.3,116-207.2,150.6"/>
		<path class="st3" d="M518.4,217c0,0-89.5,116.5-284.9,130"/>
		<path class="st3" d="M510,213.1c0,0-135.7,116.8-274.2,18.9"/>
		<polygon points="522.8,285.2 533.9,288.1 525.8,296.2 		"/>
		<polygon points="499.9,277.7 509.7,283.4 499.8,289.1 		"/>
		<polygon points="480.2,269.2 489.7,275.6 479.5,280.6 		"/>
		<polygon points="463.7,259.7 472,267.6 461,270.8 		"/>
		<polygon points="444.9,244.9 451.9,253.9 440.6,255.4 		"/>
	</g>
	<g id="leftBottom_1_">
		<path class="st3" d="M561.2,222.7c0,0,6.8,101.9,71.5,170"/>
		<path class="st3" d="M568.5,221c0,0,41.1,116.5,145.2,162.1"/>
		<path class="st3" d="M577.5,219.9c0,0,65.3,116,207.2,150.6"/>
		<path class="st3" d="M584.9,217c0,0,89.5,116.5,284.9,130"/>
		<path class="st3" d="M593.3,213.1c0,0,135.7,116.8,274.2,18.9"/>
		<polygon points="580.6,284.1 569.4,286.2 576.8,294.9 		"/>
		<polygon points="603.3,276.1 593.4,281.8 603.3,287.6 		"/>
		<polygon points="621.2,267.8 611.7,274.2 622,279.3 		"/>
		<polygon points="636.6,257.7 628.4,265.6 639.4,268.8 		"/>
		<polygon points="654.9,243.8 647.8,252.8 659.1,254.5 		"/>
	</g>
	<polygon points="695.1,180.6 706.5,182.3 699.3,191.2 	"/>
	<polygon points="700.8,87.2 711.9,90 703.9,98.2 	"/>
	<polygon points="664.4,41.1 671.9,32.4 675.7,43.2 	"/>
	<polygon points="666,240 668.1,228.8 676.8,236.2 	"/>
	<polygon points="660.6,132 666.2,142 654.8,141.9 	"/>
	<polygon points="684.3,132 689.9,142 678.4,141.9 	"/>
	<path id="r" class="st3" d="M705.3,34.6c-35.4,0-73.3,12.9-101.9,32.7c20.9,15.9,34.3,41,34.3,69.2c0,29.4-12.9,55.4-35,71.1
		c28.4,19.1,66,31.3,101.4,31.3c69.6,0,109.2-47.1,109.2-100.8C813.4,84.6,775,34.6,705.3,34.6z"/>
	<path class="st3" d="M643.7,71.2c-10.9,0-21.3,1.6-30.8,4.4c15.4,15.7,24.9,37.2,24.9,60.9c0,23.7-8.4,45.2-23.2,60.9
		c9.1,2.5,18.9,3.9,29.1,3.9c47.1,0,85.3-29.1,85.3-65C729,100.3,690.8,71.2,643.7,71.2z"/>
	<path class="st3" d="M633,89.2c-3,0-5.9,0.3-8.7,0.7c8.5,13.5,13.5,29.4,13.5,46.5c0,18.1-4.9,34.9-13.8,48.8
		c2.9,0.5,5.9,0.8,9,0.8c27.8,0,50.4-21.7,50.4-48.4C683.4,110.9,660.8,89.2,633,89.2z"/>
	<path class="st3" d="M631.4,103.9c4.1,10.1,6.3,21.1,6.3,32.6c0,12.4-2.3,24.2-6.6,34.9c16.2-0.4,29.1-15.4,29.1-33.7
		C660.3,119.4,647.5,104.5,631.4,103.9z"/>
	<path id="main_circle_3_" class="st3" d="M463.8,136.5c0-48,38.9-87,87-87c48,0,87,38.9,87,87c0,48-34.4,87-87,87
		C502.8,223.5,463.8,184.6,463.8,136.5z"/>
	<path id="r_1_" class="st3" d="M396.8,34.4c35.4,0,73.3,12.9,101.9,32.7c-20.9,15.9-34.3,41-34.3,69.2c0,29.4,12.9,55.4,35,71.1
		c-28.4,19.1-66,31.3-101.4,31.3c-69.6,0-109.2-47.1-109.2-100.8S327.2,34.4,396.8,34.4z"/>
	<path class="st3" d="M458.5,70.9c10.9,0,21.3,1.6,30.8,4.4c-15.4,15.7-24.9,37.2-24.9,60.9c0,23.7,8.4,45.2,23.2,60.9
		c-9.1,2.5-18.9,3.9-29.1,3.9c-47.1,0-85.3-29.1-85.3-65C373.2,100.1,411.4,70.9,458.5,70.9z"/>
	<path class="st3" d="M469.2,89c3,0,5.9,0.3,8.7,0.7c-8.6,13.5-13.5,29.4-13.5,46.5c0,18.1,4.9,34.9,13.8,48.8
		c-2.9,0.5-5.9,0.8-9,0.8c-27.8,0-50.4-21.7-50.4-48.4S441.3,89,469.2,89z"/>
	<path class="st3" d="M470.7,103.7c-4.1,10.1-6.3,21.1-6.3,32.6c0,12.4,2.3,24.2,6.6,34.9c-16.2-0.4-29.1-15.4-29.1-33.7
		C441.9,119.1,454.7,104.2,470.7,103.7z"/>
	<polygon points="442.8,132 448.4,142 436.9,141.9 	"/>
	<polygon points="419.1,132.5 424.7,142.5 413.3,142.3 	"/>
	<polygon points="402.4,84.7 399.2,95.7 391.3,87.4 	"/>
	<polygon points="408.3,181.8 402.5,191.7 396.8,181.7 	"/>
	<polygon points="432,229.7 431.5,241.1 421.9,234.9 	"/>
	<polygon points="435.1,39.4 424.8,44.4 425.6,33 	"/>
</g>
<g>
	<g id="XMLID_6_">
		<g>
			<line class="st4" x1="549.1" y1="148.6" x2="549.1" y2="113.3"/>
			<g>
				<polygon class="st5" points="554.1,114.7 549.1,106.1 544.1,114.7 				"/>
			</g>
		</g>
	</g>
	<g id="XMLID_7_">
		<g>
			<line class="st6" x1="549.1" y1="148.6" x2="570.3" y2="148.6"/>
			<g>
				<polygon class="st7" points="568.8,153.6 577.4,148.6 568.8,143.6 				"/>
			</g>
		</g>
	</g>
	<g id="XMLID_17_">
		<text id="XMLID_11_" transform="matrix(1 0 0 1 533.0491 203.3917)" class="st8 st1 st9">z</text>
		<g id="XMLID_13_">
			<line class="st7" x1="534.4" y1="178.9" x2="550.4" y2="178.9"/>
			<g>
				<line class="st10" x1="534.4" y1="178.9" x2="544.7" y2="178.9"/>
				<g>
					<polygon class="st8" points="543.5,182.8 550.4,178.9 543.5,174.9 					"/>
				</g>
			</g>
		</g>
	</g>
	<g id="XMLID_16_">
		<text id="XMLID_10_" transform="matrix(1 0 0 1 541.7357 94.592)" class="st5 st1 st11">y</text>
		<g id="XMLID_14_">
			<line class="st7" x1="541.6" y1="74" x2="556.6" y2="74"/>
			<g>
				<line class="st4" x1="541.6" y1="74" x2="550.8" y2="74"/>
				<g>
					<polygon class="st5" points="549.6,78 556.6,74 549.6,70 					"/>
				</g>
			</g>
		</g>
	</g>
	<g id="XMLID_15_">
		<text id="XMLID_9_" transform="matrix(1 0 0 1 585.5586 160.0525)" class="st7 st1 st12">x</text>
		<g id="XMLID_21_">
			<line class="st7" x1="585.2" y1="135.6" x2="603.9" y2="135.6"/>
			<g>
				<line class="st6" x1="585.2" y1="135.6" x2="598.2" y2="135.6"/>
				<g>
					<polygon class="st7" points="597,139.6 603.9,135.6 597,131.6 					"/>
				</g>
			</g>
		</g>
	</g>
	<g id="XMLID_8_">
		<circle id="XMLID_12_" class="st10" cx="506.6" cy="191.1" r="14.5"/>
		<circle id="XMLID_18_" class="st8" cx="506.6" cy="191.1" r="2.8"/>
	</g>
</g>
</svg>
